<svg xmlns="http://www.w3.org/2000/svg" xmlns:xlink="http://www.w3.org/1999/xlink" width="16" height="16" viewBox="0 0 16 16">
  <defs>
    <clipPath id="clip-path">
      <rect id="Retângulo_8686" data-name="Retângulo 8686" width="16" height="16" transform="translate(56 412)" fill="#fff" stroke="#707070" stroke-width="1"/>
    </clipPath>
  </defs>
  <g id="Grupo_de_máscara_2845" data-name="Grupo de máscara 2845" transform="translate(-56 -412)" opacity="0.75" clip-path="url(#clip-path)">
    <g id="gear-six-bold" transform="translate(56 412)">
      <rect id="Retângulo_8687" data-name="Retângulo 8687" width="16" height="16" fill="none"/>
      <circle id="Elipse_13" data-name="Elipse 13" cx="2.75" cy="2.75" r="2.75" transform="translate(5.25 5.25)" fill="none" stroke="#000" stroke-linecap="round" stroke-linejoin="round" stroke-width="1.5"/>
      <path id="Caminho_2220" data-name="Caminho 2220" d="M12.337,5.044a4.6,4.6,0,0,1,.394.681l1.619.9a6.375,6.375,0,0,1,.006,2.75l-1.625.9a4.6,4.6,0,0,1-.394.681l.031,1.856a6.5,6.5,0,0,1-2.381,1.381l-1.594-.956a5.519,5.519,0,0,1-.788,0l-1.588.95a6.412,6.412,0,0,1-2.388-1.375l.031-1.85a5.006,5.006,0,0,1-.394-.687l-1.619-.9a6.375,6.375,0,0,1-.006-2.75l1.625-.9a4.6,4.6,0,0,1,.394-.681L3.631,3.188A6.5,6.5,0,0,1,6.013,1.806l1.594.956a5.519,5.519,0,0,1,.788,0l1.587-.95a6.413,6.413,0,0,1,2.387,1.375Z" fill="none" stroke="#000" stroke-linecap="round" stroke-linejoin="round" stroke-width="1.5"/>
    </g>
  </g>
</svg>
